<svg height="551.73152" viewBox="0 0 793 551.73152" width="793" xmlns="http://www.w3.org/2000/svg"><ellipse cx="158" cy="539.73152" fill="#e6e6e6" rx="158" ry="12"/><g transform="translate(-203.5 -174.13424)"><path d="m324.27227 296.55377c27.49676-11.6953 61.74442-4.28528 95.19092.85757.31124-6.228 4.08385-13.80782.132-18.15284-4.80115-5.2788-4.35917-10.82529-1.47008-16.40375 7.38788-14.265-3.1969-29.44375-13.88428-42.0647a23.66937 23.66937 0 0 0 -19.75537-8.29179l-19.7975 1.41411a23.70939 23.70939 0 0 0 -21.05296 16.94614c-4.72724 6.42917-7.25736 12.84055-5.66438 19.21854-7.08065 4.83882-8.27029 10.67977-5.08851 17.2644 2.698 4.14592 2.66928 8.18161-.12275 12.1056a55.89079 55.89079 0 0 0 -8.31011 16.5061z" fill="#2f2e41"/><path d="m977.70889 651.09727h-560.41778a18.79111 18.79111 0 0 1 -18.79111-18.79111q304.727-35.41512 598 0a18.79111 18.79111 0 0 1 -18.79111 18.79111z" fill="#2f2e41"/><path d="m996.5 633.41151-598-1.10536 69.30611-116.61553.3316-.55268v-257.00737a23.7522 23.7522 0 0 1 23.75418-23.75418h407.90011a23.7522 23.7522 0 0 1 23.75418 23.75418v258.77592z" fill="#3f3d56"/><path d="m491.35028 250.95679a7.74623 7.74623 0 0 0 -7.73753 7.73753v234.33641a7.74657 7.74657 0 0 0 7.73753 7.73752h412.29944a7.74691 7.74691 0 0 0 7.73753-7.73752v-234.33641a7.74657 7.74657 0 0 0 -7.73753-7.73753z" fill="#fff"/><path d="m493.07794 531.71835a3.32522 3.32522 0 0 0 -3.01275 1.93006l-21.35537 46.42514a3.31594 3.31594 0 0 0 3.01221 4.7021h449.09208a3.3157 3.3157 0 0 0 2.96526-4.79925l-23.21257-46.42514a3.29926 3.29926 0 0 0 -2.96526-1.83291z" fill="#2f2e41"/></g><circle cx="492.34196" cy="67.97967" fill="#fff" r="4.97412"/><path d="m651.69986 593.61853a3.32114 3.32114 0 0 0 -3.20165 2.4536l-5.35679 19.89649a3.31576 3.31576 0 0 0 3.20166 4.17856h101.874a3.31531 3.31531 0 0 0 3.13257-4.40093l-6.88691-19.89649a3.31784 3.31784 0 0 0 -3.13366-2.23123z" fill="#2f2e41" transform="translate(-203.5 -174.13424)"/><path d="m720.046 337.135v4.421h-455.74l.343-.552v-3.869z" fill="#2f2e41"/><circle cx="707.33457" cy="77.37523" fill="#d7624a" r="77.37523"/><path d="m942.89 285.223h-64.11089a4.42582 4.42582 0 0 1 -4.42144-4.42145v-38.68764a4.42616 4.42616 0 0 1 4.42144-4.42144h64.11089a4.42616 4.42616 0 0 1 4.42144 4.42144v38.68761a4.42582 4.42582 0 0 1 -4.42144 4.42148zm-64.11091-43.10906v38.68761h64.11415l-.00324-38.68764z" fill="#fff" transform="translate(-203.5 -174.13424)"/><path d="m930.73105 242.11391h-39.793v-17.68577c0-12.80987 8.36792-22.10721 19.89649-22.10721s19.89648 9.29734 19.89648 22.10721zm-35.37153-4.42144h30.95009v-13.26433c0-10.413-6.36338-17.68576-15.475-17.68576s-15.47505 7.27281-15.47505 17.68576z" fill="#fff" transform="translate(-203.5 -174.13424)"/><circle cx="707.33457" cy="86.21811" fill="#fff" r="4.42144"/><path d="m856.81994 421.28372h-318.63988a5.90767 5.90767 0 0 1 -5.90073-5.90073v-79.04099a5.90767 5.90767 0 0 1 5.90073-5.90072h318.63988a5.90767 5.90767 0 0 1 5.90073 5.90072v79.041a5.90767 5.90767 0 0 1 -5.90073 5.90072zm-318.63988-88.4821a3.5443 3.5443 0 0 0 -3.54043 3.54043v79.04095a3.54431 3.54431 0 0 0 3.54043 3.54044h318.63988a3.54431 3.54431 0 0 0 3.54043-3.54044v-79.041a3.5443 3.5443 0 0 0 -3.54043-3.54043z" fill="#e6e6e6" transform="translate(-203.5 -174.13424)"/><circle cx="384.19021" cy="198.69546" fill="#e6e6e6" r="24.03645"/><g transform="translate(-203.5 -174.13424)"><path d="m643.203 356.80541a4.00608 4.00608 0 1 0 0 8.01215h188.85774a4.00607 4.00607 0 0 0 0-8.01215z" fill="#e6e6e6"/><path d="m643.203 380.84186a4.00607 4.00607 0 1 0 0 8.01214h81.266a4.00607 4.00607 0 1 0 0-8.01214z" fill="#e6e6e6"/><path d="m467.022 382.46241-58.9031 31.31559-.74561-26.09629c19.22553-3.20948 37.51669-8.7974 54.42941-17.8946l6.1605-15.22008a10.31753 10.31753 0 0 1 17.53643-2.67788 10.31753 10.31753 0 0 1 -.90847 14.06885z" fill="#ffb8b8"/><g fill="#2f2e41"><path d="m323.09819 563.26707a11.57378 11.57378 0 0 1 1.46928-9.36311l12.93931-19.85777a22.61221 22.61221 0 0 1 29.335-7.73927c-5.438 9.25647-4.67994 17.37679 1.87806 24.43365a117.63085 117.63085 0 0 0 -27.93606 19.04492 11.57386 11.57386 0 0 1 -17.68559-6.51842z"/><path d="m469.70475 537.30274a22.20314 22.20314 0 0 1 -18.87085 10.77909l-85.96027.65122-3.728-21.62264 38.026-11.18413-32.06116-24.60507 35.04353-41.00844 63.65 59.32431a22.20317 22.20317 0 0 1 3.90075 27.66566z"/><path d="m351.45266 685.17939h-20.13142c-18.07509-123.89772-36.47383-248.14186 17.8946-294.51529l64.12231 10.43852-8.20169 54.42938-35.7892 41.00845z"/><path d="m369.14917 713.24594a11.57381 11.57381 0 0 1 -9.3632-1.46873l-21.85854-2.93814a22.61221 22.61221 0 0 1 -7.741-29.33451c9.2568 5.43749 17.37707 4.67891 24.43354-1.8795 4.98593 10.06738 13.20093 9.45331 21.04657 17.93494a11.57385 11.57385 0 0 1 -6.51737 17.68594z"/></g><path d="m399.1716 307.90158-37.28042-8.94731c6.19168-12.6739 6.70155-26.77618 3.728-41.75406l25.35068-.74561c.79435 18.6254 3.19746 36.02621 8.20174 51.44698z" fill="#ffb8b8"/><path d="m409.41752 423.55243c-27.13873 18.49308-46.31418.63272-60.94729-26.92346 2.03338-16.86188-1.259-37.04061-7.35672-58.96635a40.13762 40.13762 0 0 1 24.50567-48.40124l32.06116 13.421c27.22362 22.19038 32.582 46.227 22.36825 71.5784z" fill="#d7624a"/><path d="m331.32124 326.54178-29.82434 15.65778 52.9382 31.31555 7.366 18.16951a9.63673 9.63673 0 0 1 -5.78925 12.73088 9.63673 9.63673 0 0 1 -12.76159-8.54442l-.74489-12.66307-67.2838-22.20366a15.73306 15.73306 0 0 1 -9.87265-9.61147 15.733 15.733 0 0 1 5.90262-18.30258l54.10485-37.11845z" fill="#ffb8b8"/><path d="m361.14557 329.52422c-12.43861-5.4511-23.74934.47044-38.026 5.21926l-2.23683-39.51725c14.17612-7.55568 27.69209-9.59281 40.26285-3.728z" fill="#d7624a"/></g><circle cx="172.52496" cy="78.09251" fill="#ffb8b8" r="23.80211"/><path d="m404.5 249.22353c-23.56616 2.30811-41.52338-1.54606-53-12.52007v-8.8377h51z" fill="#2f2e41" transform="translate(-203.5 -174.13424)"/></svg>