<svg viewBox="0 0 512 512" xmlns="http://www.w3.org/2000/svg"><path d="m255.31 471.89c-118.91 0-215.17-96.26-215.17-215.17s96.26-216.59 215.17-216.59 216.58 96.26 216.58 216.58-97.68 215.17-216.58 215.17z" fill="#b2c5e6"/><g fill="#78c5ac"><path d="m183.82 332.35c-12.74 0-26.9-1.42-36.81-9.91-9.91-7.08-14.16-18.4-19.82-26.9-5.66-11.32-9.91-18.4-16.99-19.82-4.25 0-7.08 1.42-11.32 2.83-11.32 4.25-28.31 8.49-43.88 12.74l-11.32 2.83-1.42-11.32c-1.42-11.32-2.83-21.23-2.83-31.14 0-94.84 63.7-179.78 154.3-206.68l7.08-2.83 4.25 5.66c7.08 9.91 12.74 19.82 16.99 28.31 12.74 19.82 12.74 33.97 4.25 45.3-5.66 7.08-12.74 9.91-19.82 12.74-14.16 4.25-26.9 9.91-41.05 14.16-5.66 0-7.08 5.66-7.08 9.91 0 1.42 0 7.08 7.08 8.49 2.83 1.42 5.66 1.42 9.91 1.42h4.25c5.66 0 12.74 0 18.4 4.25 18.4 9.91 19.82 33.97 19.82 43.88l1.42 84.94c0 5.66 0 15.57-7.08 22.65-7.08 8.49-18.4 8.49-24.06 8.49h-4.25z"/><path d="m376.34 134.16c-9.91 0-19.82 0-28.31-1.42-5.66 0-16.99-1.42-24.06-9.91-5.66-7.08-5.66-15.57-5.66-19.82 0-14.16-1.42-29.73 0-43.88l1.42-12.74 12.74 4.25c33.97 12.74 65.12 33.97 89.18 62.29l8.49 9.91-11.32 5.66c-8.49 4.25-16.99 5.66-25.48 5.66-7.08 0-11.32 0-16.99 0z"/><path d="m304.05 475.22v-12.74c-1.42-24.06 8.49-48.13 18.4-67.95l4.25-7.08c9.91-18.4 18.4-35.39 19.82-55.21 1.42-18.4-4.25-41.05-21.23-48.13-4.25-1.42-8.49-2.83-12.74-4.25-11.32-2.83-25.48-7.08-32.56-19.82s-2.83-28.31 0-36.81c4.25-14.16 11.32-36.81 29.73-48.13 7.08-4.25 16.99-7.08 26.9-7.08 12.74 0 26.9 4.25 39.64 8.49l35.39 11.32c18.4 5.66 38.22 12.74 56.62 15.57l7.08 1.42 1.42 7.08c4.25 16.99 5.66 33.97 5.66 49.55 0 100.51-67.95 186.86-167.04 209.51l-11.32 4.25z"/></g><path d="m189.6 160.52c-4.43 1.61-3.99 189.5 0 190.96 3.99 1.47 166.47-90.66 166.47-95.51s-162.04-97.07-166.47-95.46z" fill="#d2121b"/><path d="m437.05 74.89c-49.93-49.91-115.5-74.89-181.05-74.89-65.56 0-131.11 24.96-181.04 74.89-99.88 99.87-99.98 262.34-.11 362.2 99.87 99.87 262.44 99.87 362.31 0 99.86-99.87 99.76-262.34-.11-362.2zm-28.39 333.76s0 0-.01 0c-84.31 84.31-221 84.3-305.3 0 0 0 0 0 0-.01-84.3-84.31-84.3-221 0-305.3 39.71-39.71 93.33-62.38 149.47-63.2h.04c58.34-.85 114.54 21.95 155.8 63.2 84.3 84.31 84.3 221 0 305.3z" fill="#1e2d69"/><path d="m346.96 158.86c-1.59-1.89-3.18-3.77-4.86-5.54-5.78-6.08-12.19-11.56-19.08-16.33-10.38-7.19-21.86-12.79-33.93-16.51-9.8-3.02-24.11-2.66-30.97-11.34-3.82-4.83-5-11.9-2.49-17.52 11.3-25.27 52.45-14.02 72.06-4.66 14.39 6.87 27.97 15.59 39.65 26.49 10.41 9.71 27.28 26.33 24.71 42.07-.99 6.03-2.86 10.87-7.57 14.76-7.29 6.01-18.04 4.62-25.63-.07-4.73-2.92-8.32-7.13-11.88-11.35z" fill="#fff"/><path d="m397.98 226.71c-11.85-9.14-13.49-26.15.57-32.8 16.55-7.83 32.67 18.01 22.46 30.21-7.45 8.9-16.13 7.92-23.03 2.6z" fill="#fff"/></svg>