<svg width="150" height="69" viewBox="0 0 150 69" fill="none" xmlns="http://www.w3.org/2000/svg">
<g filter="url(#filter0_d)">
<path d="M9.022 44.0144C7.978 46.7324 6.232 49.4144 4.414 51.1244C4.666 51.4124 5.044 52.1144 5.17 52.4204C5.836 51.7544 6.52 50.9624 7.15 50.0804V60.5744H8.428V48.1544C9.13 46.9484 9.778 45.6704 10.282 44.4104L9.022 44.0144ZM11.56 52.8344V50.1704H14.764V52.0244C14.764 52.2944 14.764 52.5644 14.746 52.8344H11.56ZM19.39 50.1704V52.8344H16.06C16.078 52.5644 16.078 52.2944 16.078 52.0244V50.1704H19.39ZM20.668 53.9684V49.0364H16.078V47.2724H21.262V46.0484H16.078V44.1404H14.764V46.0484H9.796V47.2724H14.764V49.0364H10.318V53.9684H14.674C14.548 54.9584 14.278 55.9124 13.702 56.7404C12.748 56.0744 11.974 55.2824 11.434 54.3464L10.318 54.7064C10.984 55.8584 11.866 56.8304 12.928 57.6224C12.082 58.3784 10.894 58.9904 9.13 59.4404C9.418 59.7104 9.796 60.2684 9.94 60.5564C11.812 59.9984 13.108 59.2424 14.008 58.3604C15.844 59.4584 18.094 60.1604 20.632 60.5384C20.812 60.1424 21.136 59.6204 21.424 59.3324C18.868 59.0264 16.6 58.4144 14.8 57.4244C15.52 56.3804 15.844 55.2104 15.988 53.9684H20.668ZM26.014 46.5524L24.268 46.5164C24.376 46.9484 24.394 47.7044 24.394 48.1184C24.394 49.1624 24.43 51.3584 24.592 52.9244C25.078 57.5864 26.716 59.2784 28.426 59.2784C29.632 59.2784 30.73 58.2344 31.81 55.1744L30.676 53.8964C30.208 55.6964 29.362 57.5684 28.444 57.5684C27.166 57.5684 26.284 55.5704 25.996 52.5644C25.87 51.0704 25.852 49.4324 25.87 48.2984C25.87 47.8304 25.942 46.9844 26.014 46.5524ZM35.392 47.0564L33.988 47.5424C35.716 49.6484 36.796 53.3384 37.12 56.5964L38.56 56.0024C38.29 52.9604 36.994 49.1444 35.392 47.0564ZM56.992 48.4244V47.1464H49.612V44.0144H48.262V47.1464H41.008V48.4244H46.534C46.318 52.5644 45.796 57.2264 40.828 59.4584C41.17 59.7284 41.584 60.2144 41.782 60.5564C45.436 58.7924 46.876 55.8224 47.506 52.6364H53.446C53.14 56.7944 52.798 58.5584 52.258 59.0264C52.078 59.2064 51.826 59.2244 51.412 59.2244C50.962 59.2244 49.684 59.2244 48.406 59.0984C48.658 59.4584 48.838 60.0164 48.874 60.3944C50.08 60.4664 51.25 60.4844 51.88 60.4484C52.564 60.4124 52.996 60.2864 53.41 59.8544C54.112 59.1344 54.472 57.1544 54.832 52.0244C54.85 51.8084 54.868 51.3764 54.868 51.3764H47.704C47.848 50.3864 47.92 49.3964 47.974 48.4244H56.992Z" fill="black"/>
</g>
<g filter="url(#filter1_d)">
<path d="M35 40C38.92 22.7782 80.7333 24.8727 84 8" stroke="black" stroke-width="3"/>
</g>
<g filter="url(#filter2_d)">
<path d="M86.2476 2.55325L87.694 12.8444L78.0584 8.95139L86.2476 2.55325Z" fill="black"/>
</g>
<g filter="url(#filter3_d)">
<path d="M104.876 44.564H99.692V45.644H104.876V44.564ZM105.542 46.922H98.756V48.02H105.542V46.922ZM103.742 55.238V58.262H100.736V55.238H103.742ZM104.912 54.14H99.566V60.17H100.736V59.342H104.912V54.14ZM99.602 52.808H104.93V51.728H99.602V52.808ZM99.602 50.414H104.93V49.352H99.602V50.414ZM108.224 45.698H111.302V48.902C111.302 50.18 111.626 50.522 112.724 50.522H113.966C114.92 50.522 115.244 50 115.352 47.894C115.01 47.822 114.488 47.624 114.236 47.408C114.2 49.136 114.128 49.37 113.804 49.37H112.904C112.616 49.37 112.562 49.298 112.562 48.902V44.51H106.946V46.67C106.946 47.912 106.676 49.406 104.948 50.504C105.218 50.684 105.722 51.152 105.92 51.386C107.828 50.126 108.224 48.236 108.224 46.688V45.698ZM113.408 51.62L113.174 51.674H105.776V52.898H112.58C112.04 54.284 111.23 55.454 110.222 56.408C109.214 55.418 108.422 54.248 107.9 52.934L106.712 53.294C107.324 54.806 108.17 56.12 109.232 57.218C107.972 58.154 106.514 58.802 104.984 59.198C105.236 59.468 105.578 60.044 105.704 60.368C107.342 59.882 108.89 59.162 110.222 58.136C111.446 59.126 112.868 59.864 114.506 60.35C114.686 60.026 115.082 59.486 115.37 59.216C113.786 58.82 112.4 58.154 111.23 57.272C112.598 55.922 113.66 54.176 114.272 51.962L113.408 51.62ZM118.844 47.264H131.102V49.892H132.47V46.004H125.666V43.952H124.28V46.004H117.53V49.892H118.844V47.264ZM125.666 54.914H130.994V53.672H125.666V50.684H130.256V49.424H119.834V50.684H124.298V58.226C122.822 57.668 121.67 56.642 120.986 54.752C121.166 53.996 121.31 53.204 121.418 52.358L120.05 52.232C119.654 55.454 118.682 58.01 116.684 59.558C117.008 59.756 117.566 60.224 117.782 60.458C118.952 59.432 119.834 58.1 120.464 56.444C122.102 59.486 124.784 60.134 128.51 60.134H132.686C132.74 59.738 132.974 59.108 133.19 58.784C132.326 58.802 129.23 58.802 128.582 58.802C127.538 58.802 126.548 58.748 125.666 58.586V54.914Z" fill="black"/>
</g>
<g filter="url(#filter4_d)">
<path d="M117 40C121.8 23.669 140 30.6207 140 8" stroke="black" stroke-width="3"/>
</g>
<g filter="url(#filter5_d)">
<path d="M140 2L145.196 11L134.804 11L140 2Z" fill="black"/>
</g>
<defs>
<filter id="filter0_d" x="0.414001" y="44.0144" width="60.578" height="24.56" filterUnits="userSpaceOnUse" color-interpolation-filters="sRGB">
<feFlood flood-opacity="0" result="BackgroundImageFix"/>
<feColorMatrix in="SourceAlpha" type="matrix" values="0 0 0 0 0 0 0 0 0 0 0 0 0 0 0 0 0 0 127 0"/>
<feOffset dy="4"/>
<feGaussianBlur stdDeviation="2"/>
<feColorMatrix type="matrix" values="0 0 0 0 0 0 0 0 0 0 0 0 0 0 0 0 0 0 0.25 0"/>
<feBlend mode="normal" in2="BackgroundImageFix" result="effect1_dropShadow"/>
<feBlend mode="normal" in="SourceGraphic" in2="effect1_dropShadow" result="shape"/>
</filter>
<filter id="filter1_d" x="29.5374" y="7.71488" width="59.9352" height="40.618" filterUnits="userSpaceOnUse" color-interpolation-filters="sRGB">
<feFlood flood-opacity="0" result="BackgroundImageFix"/>
<feColorMatrix in="SourceAlpha" type="matrix" values="0 0 0 0 0 0 0 0 0 0 0 0 0 0 0 0 0 0 127 0"/>
<feOffset dy="4"/>
<feGaussianBlur stdDeviation="2"/>
<feColorMatrix type="matrix" values="0 0 0 0 0 0 0 0 0 0 0 0 0 0 0 0 0 0 0.25 0"/>
<feBlend mode="normal" in2="BackgroundImageFix" result="effect1_dropShadow"/>
<feBlend mode="normal" in="SourceGraphic" in2="effect1_dropShadow" result="shape"/>
</filter>
<filter id="filter2_d" x="74.0584" y="0.606735" width="21.007" height="20.2377" filterUnits="userSpaceOnUse" color-interpolation-filters="sRGB">
<feFlood flood-opacity="0" result="BackgroundImageFix"/>
<feColorMatrix in="SourceAlpha" type="matrix" values="0 0 0 0 0 0 0 0 0 0 0 0 0 0 0 0 0 0 127 0"/>
<feOffset dy="4"/>
<feGaussianBlur stdDeviation="2"/>
<feColorMatrix type="matrix" values="0 0 0 0 0 0 0 0 0 0 0 0 0 0 0 0 0 0 0.25 0"/>
<feBlend mode="normal" in2="BackgroundImageFix" result="effect1_dropShadow"/>
<feBlend mode="normal" in="SourceGraphic" in2="effect1_dropShadow" result="shape"/>
</filter>
<filter id="filter3_d" x="94.756" y="43.952" width="42.434" height="24.506" filterUnits="userSpaceOnUse" color-interpolation-filters="sRGB">
<feFlood flood-opacity="0" result="BackgroundImageFix"/>
<feColorMatrix in="SourceAlpha" type="matrix" values="0 0 0 0 0 0 0 0 0 0 0 0 0 0 0 0 0 0 127 0"/>
<feOffset dy="4"/>
<feGaussianBlur stdDeviation="2"/>
<feColorMatrix type="matrix" values="0 0 0 0 0 0 0 0 0 0 0 0 0 0 0 0 0 0 0.25 0"/>
<feBlend mode="normal" in2="BackgroundImageFix" result="effect1_dropShadow"/>
<feBlend mode="normal" in="SourceGraphic" in2="effect1_dropShadow" result="shape"/>
</filter>
<filter id="filter4_d" x="111.561" y="8" width="33.9391" height="40.423" filterUnits="userSpaceOnUse" color-interpolation-filters="sRGB">
<feFlood flood-opacity="0" result="BackgroundImageFix"/>
<feColorMatrix in="SourceAlpha" type="matrix" values="0 0 0 0 0 0 0 0 0 0 0 0 0 0 0 0 0 0 127 0"/>
<feOffset dy="4"/>
<feGaussianBlur stdDeviation="2"/>
<feColorMatrix type="matrix" values="0 0 0 0 0 0 0 0 0 0 0 0 0 0 0 0 0 0 0.25 0"/>
<feBlend mode="normal" in2="BackgroundImageFix" result="effect1_dropShadow"/>
<feBlend mode="normal" in="SourceGraphic" in2="effect1_dropShadow" result="shape"/>
</filter>
<filter id="filter5_d" x="130.804" y="2" width="18.3923" height="17" filterUnits="userSpaceOnUse" color-interpolation-filters="sRGB">
<feFlood flood-opacity="0" result="BackgroundImageFix"/>
<feColorMatrix in="SourceAlpha" type="matrix" values="0 0 0 0 0 0 0 0 0 0 0 0 0 0 0 0 0 0 127 0"/>
<feOffset dy="4"/>
<feGaussianBlur stdDeviation="2"/>
<feColorMatrix type="matrix" values="0 0 0 0 0 0 0 0 0 0 0 0 0 0 0 0 0 0 0.25 0"/>
<feBlend mode="normal" in2="BackgroundImageFix" result="effect1_dropShadow"/>
<feBlend mode="normal" in="SourceGraphic" in2="effect1_dropShadow" result="shape"/>
</filter>
</defs>
</svg>
