<svg width="98" height="89" viewBox="0 0 98 89" fill="none" xmlns="http://www.w3.org/2000/svg">
<g filter="url(#about_help_0_d)">
<path d="M7.348 69.932C6.652 71.744 5.488 73.532 4.276 74.672C4.444 74.864 4.696 75.332 4.78 75.536C5.224 75.092 5.68 74.564 6.1 73.976V80.972H6.952V72.692C7.42 71.888 7.852 71.036 8.188 70.196L7.348 69.932ZM9.04 75.812V74.036H11.176V75.272C11.176 75.452 11.176 75.632 11.164 75.812H9.04ZM14.26 74.036V75.812H12.04C12.052 75.632 12.052 75.452 12.052 75.272V74.036H14.26ZM15.112 76.568V73.28H12.052V72.104H15.508V71.288H12.052V70.016H11.176V71.288H7.864V72.104H11.176V73.28H8.212V76.568H11.116C11.032 77.228 10.852 77.864 10.468 78.416C9.832 77.972 9.316 77.444 8.956 76.82L8.212 77.06C8.656 77.828 9.244 78.476 9.952 79.004C9.388 79.508 8.596 79.916 7.42 80.216C7.612 80.396 7.864 80.768 7.96 80.96C9.208 80.588 10.072 80.084 10.672 79.496C11.896 80.228 13.396 80.696 15.088 80.948C15.208 80.684 15.424 80.336 15.616 80.144C13.912 79.94 12.4 79.532 11.2 78.872C11.68 78.176 11.896 77.396 11.992 76.568H15.112ZM18.676 71.624L17.512 71.6C17.584 71.888 17.596 72.392 17.596 72.668C17.596 73.364 17.62 74.828 17.728 75.872C18.052 78.98 19.144 80.108 20.284 80.108C21.088 80.108 21.82 79.412 22.54 77.372L21.784 76.52C21.472 77.72 20.908 78.968 20.296 78.968C19.444 78.968 18.856 77.636 18.664 75.632C18.58 74.636 18.568 73.544 18.58 72.788C18.58 72.476 18.628 71.912 18.676 71.624ZM24.928 71.96L23.992 72.284C25.144 73.688 25.864 76.148 26.08 78.32L27.04 77.924C26.86 75.896 25.996 73.352 24.928 71.96ZM39.328 72.872V72.02H34.408V69.932H33.508V72.02H28.672V72.872H32.356C32.212 75.632 31.864 78.74 28.552 80.228C28.78 80.408 29.056 80.732 29.188 80.96C31.624 79.784 32.584 77.804 33.004 75.68H36.964C36.76 78.452 36.532 79.628 36.172 79.94C36.052 80.06 35.884 80.072 35.608 80.072C35.308 80.072 34.456 80.072 33.604 79.988C33.772 80.228 33.892 80.6 33.916 80.852C34.72 80.9 35.5 80.912 35.92 80.888C36.376 80.864 36.664 80.78 36.94 80.492C37.408 80.012 37.648 78.692 37.888 75.272C37.9 75.128 37.912 74.84 37.912 74.84H33.136C33.232 74.18 33.28 73.52 33.316 72.872H39.328Z" fill="black"/>
</g>
<g filter="url(#about_help_1_d)">
<path d="M26 64C30.8 34.4 58 41 86 9" stroke="black" stroke-width="3"/>
</g>
<g filter="url(#about_help_2_d)">
<path d="M90.2426 4.75736L87.5529 14.7956L80.2044 7.44708L90.2426 4.75736Z" fill="black"/>
</g>
<defs>
<filter id="about_help_0_d" x="0.276001" y="69.932" width="43.052" height="19.04" filterUnits="userSpaceOnUse" color-interpolation-filters="sRGB">
<feFlood flood-opacity="0" result="BackgroundImageFix"/>
<feColorMatrix in="SourceAlpha" type="matrix" values="0 0 0 0 0 0 0 0 0 0 0 0 0 0 0 0 0 0 127 0"/>
<feOffset dy="4"/>
<feGaussianBlur stdDeviation="2"/>
<feColorMatrix type="matrix" values="0 0 0 0 0 0 0 0 0 0 0 0 0 0 0 0 0 0 0.25 0"/>
<feBlend mode="normal" in2="BackgroundImageFix" result="effect1_dropShadow"/>
<feBlend mode="normal" in="SourceGraphic" in2="effect1_dropShadow" result="shape"/>
</filter>
<filter id="about_help_1_d" x="20.5193" y="8.01225" width="70.6095" height="64.2279" filterUnits="userSpaceOnUse" color-interpolation-filters="sRGB">
<feFlood flood-opacity="0" result="BackgroundImageFix"/>
<feColorMatrix in="SourceAlpha" type="matrix" values="0 0 0 0 0 0 0 0 0 0 0 0 0 0 0 0 0 0 127 0"/>
<feOffset dy="4"/>
<feGaussianBlur stdDeviation="2"/>
<feColorMatrix type="matrix" values="0 0 0 0 0 0 0 0 0 0 0 0 0 0 0 0 0 0 0.25 0"/>
<feBlend mode="normal" in2="BackgroundImageFix" result="effect1_dropShadow"/>
<feBlend mode="normal" in="SourceGraphic" in2="effect1_dropShadow" result="shape"/>
</filter>
<filter id="about_help_2_d" x="76.2044" y="1.08312" width="21.7124" height="21.7124" filterUnits="userSpaceOnUse" color-interpolation-filters="sRGB">
<feFlood flood-opacity="0" result="BackgroundImageFix"/>
<feColorMatrix in="SourceAlpha" type="matrix" values="0 0 0 0 0 0 0 0 0 0 0 0 0 0 0 0 0 0 127 0"/>
<feOffset dy="4"/>
<feGaussianBlur stdDeviation="2"/>
<feColorMatrix type="matrix" values="0 0 0 0 0 0 0 0 0 0 0 0 0 0 0 0 0 0 0.25 0"/>
<feBlend mode="normal" in2="BackgroundImageFix" result="effect1_dropShadow"/>
<feBlend mode="normal" in="SourceGraphic" in2="effect1_dropShadow" result="shape"/>
</filter>
</defs>
</svg>
