<svg height="510.5" viewBox="0 0 906 510.5" width="906" xmlns="http://www.w3.org/2000/svg"><ellipse cx="834.77953" cy="505.5" fill="#f2f2f2" rx="24" ry="4"/><path d="m860.77953 123.5h2v42h-2z" fill="#f2f2f2"/><path d="m828.77953 96.5h12v414h-12z" fill="#f2f2f2"/><path d="m1036.71727 323.75h-109.87549a8.49964 8.49964 0 0 1 -8.43432-9.5542l14-112a8.51359 8.51359 0 0 1 8.43432-7.4458h81.87549a8.5136 8.5136 0 0 1 8.43433 7.4458l14 112a8.49964 8.49964 0 0 1 -8.43433 9.5542z" fill="#f2f2f2" transform="translate(-147 -194.75)"/><circle cx="861.77953" cy="165.5" fill="#f2f2f2" r="7"/><path d="m272.56021 594.1142c-5.05211 17.52641-19.80363 29.79509-35.19135 40.21717q-3.2228 2.18325-6.44766 4.266c-.01456.00637-.02957.02-.04432.0265-.10343.06644-.20707.133-.30344.1999-.44371.286-.88759.57223-1.32762.855l.24171.10859s.23735.1262-.02233.02023c-.07728-.03233-.15825-.06136-.23537-.09387-8.93929-3.60536-18.03735-7.4764-24.888-14.23042-7.1065-7.0136-11.25952-18.01412-7.41141-27.228a17.59159 17.59159 0 0 1 1.90481-3.41887c.31214-.44666.64831-.87415.99832-1.29373a18.85593 18.85593 0 0 1 32.38561 5.72979c1.13049-10.52575-7.5488-19.34264-15.90135-25.84822-8.35624-6.50227-17.85126-13.5834-19.46674-24.05073-.90216-5.82389 1.12305-11.46779 4.81223-15.99852.11421-.13767.22827-.27514.34591-.409a27.51847 27.51847 0 0 1 17.68718-9.48884c12.8132-1.33168 25.25926 5.45059 34.56778 14.35941 14.98203 14.33367 24.03931 36.35018 18.29604 56.27761z" fill="#f2f2f2" transform="translate(-147 -194.75)"/><path d="m248.476 571.18985a46.77918 46.77918 0 0 1 5.60443 12.36093 40.61956 40.61956 0 0 1 1.404 11.99679 52.0438 52.0438 0 0 1 -6.81624 23.68462 74.90268 74.90268 0 0 1 -11.29937 15.09918q-3.2228 2.18325-6.44766 4.266c-.01456.00637-.02957.02-.04432.0265-.10343.06644-.20707.133-.30344.1999-.44371.286-.88759.57223-1.32762.855 0 0 .47906.23479.21938.12882-.07728-.03233-.15825-.06136-.23537-.09387a41.40489 41.40489 0 0 0 -13.249-35.6508 41.75957 41.75957 0 0 0 -17.14558-9.22645c.31214-.44666.64831-.87415.99832-1.29373a43.29512 43.29512 0 0 1 7.14664 2.70437 42.42394 42.42394 0 0 1 19.18183 18.49345 43.37384 43.37384 0 0 1 4.72253 23.80133c.36729-.33284.735-.6729 1.09168-1.00976 6.79289-6.33308 12.82633-13.60244 16.90957-21.99188a48.41641 48.41641 0 0 0 5.06985-22.90745c-.33324-8.6533-3.781-16.66847-8.77294-23.64614a101.34581 101.34581 0 0 0 -19.2105-19.79843 115.15779 115.15779 0 0 0 -23.89219-14.75056.828.828 0 0 1 -.41667-1.06262.70423.70423 0 0 1 .34591-.409.613.613 0 0 1 .53242.02262c1.0539.48517 2.10048.977 3.13868 1.49006a116.46519 116.46519 0 0 1 24.06247 15.87266c7.08279 6.0385 13.75084 12.93751 18.73319 20.83846z" fill="#fff" transform="translate(-147 -194.75)"/><path d="m199.62527 638.25h55.36362a4.28276 4.28276 0 0 1 4.24985 4.81413l-7.05426 56.43411a4.2898 4.2898 0 0 1 -4.24986 3.75176h-41.25509a4.28978 4.28978 0 0 1 -4.24985-3.75176l-7.05427-56.43411a4.28276 4.28276 0 0 1 4.24986-4.81413z" fill="#f2f2f2" transform="translate(-147 -194.75)"/><circle cx="233.13798" cy="502.00509" fill="#ccc" r="6.92872"/><circle cx="670.80193" cy="502.00509" fill="#ccc" r="6.92872"/><path d="m507.16446 600.33045h-108.5499a19.07553 19.07553 0 0 1 -19.054-19.054v-73.90629a19.07553 19.07553 0 0 1 19.054-19.054h108.5499a19.07553 19.07553 0 0 1 19.054 19.054v73.90632a19.07553 19.07553 0 0 1 -19.054 19.05397z" fill="#e6e6e6" transform="translate(-147 -194.75)"/><path d="m653.2449 600.90784h-108.5499a19.07553 19.07553 0 0 1 -19.054-19.054v-73.90628a19.07553 19.07553 0 0 1 19.054-19.054h108.5499a19.07553 19.07553 0 0 1 19.054 19.054v73.90631a19.07553 19.07553 0 0 1 -19.054 19.05397z" fill="#e6e6e6" transform="translate(-147 -194.75)"/><path d="m799.32535 601.48523h-108.5499a19.07553 19.07553 0 0 1 -19.054-19.054v-73.90623a19.07553 19.07553 0 0 1 19.054-19.054h108.5499a19.07553 19.07553 0 0 1 19.054 19.054v73.90631a19.07553 19.07553 0 0 1 -19.054 19.05392z" fill="#e6e6e6" transform="translate(-147 -194.75)"/><path d="m215.81619 401.5387h478.08147v99.889h-478.08147z" fill="#e6e6e6"/><path d="m380.138 696.75509h-20.78617c-10.50641 0-19.054-9.705-19.054-21.6342v-104.23749h39.84017z" fill="#e6e6e6" transform="translate(-147 -194.75)"/><path d="m838.58808 696.75509h-20.78615v-142.03869h39.84012v117.62579c0 13.46134-8.54756 24.4129-19.05397 24.4129z" fill="#e6e6e6" transform="translate(-147 -194.75)"/><path d="m526.79582 617.07485h-146.65782v-31.17923q73.32919-42.06328 146.65784 0z" fill="#ccc" transform="translate(-147 -194.75)"/><path d="m672.87627 617.65224h-146.65784v-31.17924q73.32919-42.06327 146.65784 0z" fill="#ccc" transform="translate(-147 -194.75)"/><path d="m818.95672 618.22963h-146.65784v-31.17922q73.3292-42.06328 146.65784 0z" fill="#ccc" transform="translate(-147 -194.75)"/><circle cx="204.84572" cy="368.62729" fill="#ccc" r="34.06619"/><circle cx="703.71334" cy="367.47251" fill="#ccc" r="34.06619"/><path d="m750.36376 495.48413a10.52663 10.52663 0 0 1 .10713 1.654l40.83394 28.14389 10.88943-5.1551 9.92791 15.41722-18.39069 10.99952a8 8 0 0 1 -9.5486-1.002l-41.35443-38.38235a10.4971 10.4971 0 1 1 7.53531-11.67516z" fill="#ffb8b8" transform="translate(-147 -194.75)"/><path d="m792.09163 522.86016a4.49518 4.49518 0 0 1 2.4465-2.83816l20.5327-9.408a12.49742 12.49742 0 0 1 13.69556 20.90858l-16.97439 15.0095a4.5 4.5 0 0 1 -6.75219-.91657l-12.39752-19.04843a4.495 4.495 0 0 1 -.55066-3.70692z" fill="#d7624a" transform="translate(-147 -194.75)"/><path d="m749.8491 497.31856-.20515.01484-.56042-7.74517c-.17913-2.47572-1.78059-4.37732-3.57694-4.24735l-11.90631.86151c-1.79636.13-5.10216 2.38665-4.923 4.86237l.14434 1.9948 2.93018 40.49581c.17914 2.47572 3.77538 4.233 5.57173 4.103l11.90632-.86152c1.79635-.13 3.10737-2.24231 2.92824-4.718l-2.11518-29.23228.20514-.01484z" fill="#3f3d56" transform="translate(-147 -194.75)"/><path d="m748.39349 489.6696 3.07 42.42808c.13377 1.84892-.84532 3.42644-2.18687 3.52355l-11.96344.86564c-1.34155.097-2.53754-1.3231-2.67135-3.172l-3.07-42.42808c-.13376-1.84892.84533-3.42644 2.18688-3.52355l1.45131-.105a1.84749 1.84749 0 0 0 .78429 2.02782.88852.88852 0 0 0 .44286.08594l6.821-.49355c.63763-.0468 1.1026-.79715 1.03854-1.676a2.13193 2.13193 0 0 0 -.12848-.59245l1.55392-.11243c1.34155-.09702 2.53754 1.32312 2.67134 3.17203z" fill="#fff" transform="translate(-147 -194.75)"/><path d="m433.561 392.89-3.946-11.607 42.894-20.744 5.824 17.132z" fill="#ffb8b8"/><path d="m570.31592 594.42579-12.72313-37.42705.47339-.16095a15.38605 15.38605 0 0 1 19.52009 9.61488l.00032.00092 7.77074 22.8591z" fill="#2f2e41" transform="translate(-147 -194.75)"/><path d="m750.8026 595.92416a52.352 52.352 0 0 1 -26.59248-5.56753l-50.43868-34.31313-58.89509 21.80873a6.52023 6.52023 0 0 1 -8.11284-3.652l-2.88654-6.94309a6.46712 6.46712 0 0 1 3.33919-8.42458l56.267-25.26822a32.88554 32.88554 0 0 1 21.50752-1.86025l78.1124 19.90533 20.64717 24.52014-.22949.31622c-10.13562 13.98422-22.15861 18.71432-32.71816 19.47838z" fill="#2f2e41" transform="translate(-147 -194.75)"/><circle cx="667.59709" cy="274.15238" fill="#ffb8b8" r="24.56103"/><path d="m789.38494 587.062-39.52931-29.41727 26.95837-19.15955c-.77119-2.48158-4.19175-16.66967 14.51625-26.34092 5.92149-3.06082 10.188-5.69591 12.68079-7.83109a19.1416 19.1416 0 0 1 12.73791-4.64673 18.974 18.974 0 0 1 17.831 24.5604c-3.901 12.68032-10.11471 29.48263-17.565 37.51831a232.61337 232.61337 0 0 1 -27.33117 25.09258z" fill="#d7624a" transform="translate(-147 -194.75)"/><path d="m439.829 403.176-3.946-11.608 42.894-20.743 5.824 17.131z" fill="#ffb8b8"/><g transform="translate(-147 -194.75)"><path d="m576.5838 604.71131-12.72312-37.427.47339-.16095a15.38606 15.38606 0 0 1 19.52009 9.61487l.00031.00093 7.77074 22.8591z" fill="#2f2e41"/><path d="m757.07049 606.20969a52.35209 52.35209 0 0 1 -26.59248-5.56753l-50.43868-34.31316-58.89509 21.80874a6.52026 6.52026 0 0 1 -8.11285-3.65206l-2.88653-6.94308a6.46711 6.46711 0 0 1 3.33919-8.42458l56.267-25.26822a32.88547 32.88547 0 0 1 21.50752-1.86025l78.11243 19.90535 20.64713 24.5201-.22949.31621c-10.13564 13.98429-22.15864 18.71441-32.71815 19.47848z" fill="#2f2e41"/><path d="m745.73344 524.94715a10.527 10.527 0 0 1 .805 1.44889l48.95175 7.95077 7.6337-9.321 15.57282 9.682-11.91036 17.81433a8 8 0 0 1 -9.05817 3.18268l-53.80572-16.98049a10.4971 10.4971 0 1 1 1.811-13.77718z" fill="#ffb8b8"/><path d="m795.16429 531.82126a4.49517 4.49517 0 0 1 .99576-3.61233l14.52749-17.2932a12.49742 12.49742 0 0 1 21.3288 13.03148l-8.91354 20.83179a4.5 4.5 0 0 1 -6.49444 2.06264l-19.35936-11.90617a4.49494 4.49494 0 0 1 -2.08471-3.11421z" fill="#d7624a"/><path d="m808.03069 495.9518a53.614 53.614 0 0 0 11.276-32.06407 33.1019 33.1019 0 0 1 -11.20613 5.41262c-4.29157 1.143-9.0096 1.3729-13.05121-.46813-5.68859-2.59126-9.05322-9.19992-8.4076-15.41747s4.94246-11.77179 10.53709-14.56013a24.858 24.858 0 0 1 18.26706-1.10575 21.71889 21.71889 0 0 1 23.33416-3.114c8.69367 4.267 13.5018 14.14816 14.33558 23.79658s-1.64493 19.24168-4.10249 28.609l-.27767 1.05838c-.7651 2.91631-2.98912 8.51158-2.98912 8.51158s-12.916-2.54892-18.04727-4.18286c-7.43759 2.68812-19.6684 3.52425-19.6684 3.52425z" fill="#2f2e41"/><path d="m746.46278 498.30568-10.52376.76148a1 1 0 0 1 -.14434-1.99479l10.52376-.76147a1 1 0 1 1 .14434 1.99478z" fill="#3f3d56"/><path d="m746.82362 503.29265-10.52375.76147a1 1 0 1 1 -.14434-1.99478l10.52375-.76148a1 1 0 0 1 .14434 1.99479z" fill="#3f3d56"/><path d="m747.18447 508.27961-10.52376.76147a1 1 0 0 1 -.14434-1.99478l10.52376-.76148a1 1 0 0 1 .14434 1.99479z" fill="#3f3d56"/><path d="m1052 705.25h-904a1 1 0 0 1 0-2h904a1 1 0 0 1 0 2z" fill="#3f3d56"/><path d="m627.77953 372.25h-101a9.01031 9.01031 0 0 1 -9-9v-87a9.01031 9.01031 0 0 1 9-9h101a9.01032 9.01032 0 0 1 9 9v87a9.01032 9.01032 0 0 1 -9 9zm-101-103a7.00786 7.00786 0 0 0 -7 7v87a7.00786 7.00786 0 0 0 7 7h101a7.00787 7.00787 0 0 0 7-7v-87a7.00787 7.00787 0 0 0 -7-7z" fill="#f2f2f2"/><path d="m613.01256 358.75h-71.46606a8.50958 8.50958 0 0 1 -8.5-8.5v-61a8.50958 8.50958 0 0 1 8.5-8.5h71.46606a8.50958 8.50958 0 0 1 8.5 8.5v61a8.50958 8.50958 0 0 1 -8.5 8.5z" fill="#e6e6e6"/></g><circle cx="430.77953" cy="54.5" fill="#f2f2f2" r="5"/><path d="m441.292 74.014-10.51-17.563-10.45 17.56-1.719-1.022 12.164-20.44 12.231 20.437z" fill="#f2f2f2"/><path d="m589.27953 312.75a21.02288 21.02288 0 0 0 -.49561-4.5h-15.00439a4.00008 4.00008 0 0 0 -4 4v21.42426a20.98569 20.98569 0 0 0 19.5-20.92426z" fill="#d7624a" transform="translate(-147 -194.75)"/><path d="m568.27953 334.75a22 22 0 1 1 21.48132-26.71338l.26526 1.21338h-16.24658a3.00335 3.00335 0 0 0 -3 3v22.356l-1.103.07812c-.46292.03365-.92581.06588-1.397.06588zm0-42a20 20 0 0 0 0 40c.16772 0 .33423-.00488.5-.0127v-20.4873a5.0058 5.0058 0 0 1 5-5h13.72156a20.11536 20.11536 0 0 0 -19.22156-14.5z" fill="#fff" transform="translate(-147 -194.75)"/><path d="m597.77953 341.25h-24a5.0058 5.0058 0 0 1 -5-5v-3.50732l.92932-.06592a19.9444 19.9444 0 0 0 18.09815-24.21289l-.26538-1.21387h10.23792a5.0058 5.0058 0 0 1 5 5v24a5.0058 5.0058 0 0 1 -5.00001 5zm-27-6.66406v1.66406a3.00335 3.00335 0 0 0 3 3h24a3.00336 3.00336 0 0 0 3-3v-24a3.00336 3.00336 0 0 0 -3-3h-7.78723a21.81325 21.81325 0 0 1 .28723 3.5 22.06031 22.06031 0 0 1 -19.5 21.83594z" fill="#fff" transform="translate(-147 -194.75)"/></svg>